# File created by Blade
# Date/Time:  Tue Jan 27 17:16:27 2015
# Frame Rate: 120.000 fps
#------------------------------------------------------
:FULLY-SPECIFIED
:DEGREES
3649
root -1.728939 37.957125 0.050805 43.027832 48.710786 26.064984
Spine 9.265651 4.978544 1.093664
Head -6.147722 6.670568 -15.765800
LeftShoulder 2.361845 -16.123020 3.972150
LeftArm 17.015026 -26.473755 -54.870735
LeftForeArm -3.575378 -0.000000 73.579456
LeftHand -13.868480 -0.000000 55.073512
LeftHandThumb1 -26.253704 0.000000 33.147579
RightShoulder -0.761381 -21.910415 -11.142803
RightArm 13.245411 -33.602703 47.900261
RightForeArm -159.935841 0.000000 44.011768
RightHand 4.174893 -0.000000 -10.629245
RightHandThumb1 -24.326973 -0.000000 -32.862282
LeftUpLeg -33.161225 -0.582385 -4.334912
LeftLeg 18.887576 -0.000000 -0.000000
LeftFoot -1.240943 -10.344605 -26.082148
LeftToeBase 6.323686 -0.000000 -0.000000
RightUpLeg -27.150064 -20.354331 -3.714842
RightLeg 7.040631 -0.000000 -0.000000
RightFoot -11.378529 -13.766810 1.475595
RightToeBase 3.731505 -0.000000 -0.000000
3650
root -1.648101 37.924979 0.060542 41.710629 48.306123 24.791294
Spine 9.345818 5.149102 1.267015
Head -6.024280 6.739705 -15.398487
LeftShoulder 2.151855 -15.922621 3.999591
LeftArm 16.657001 -26.740101 -54.597820
LeftForeArm -3.422276 0.000000 73.995372
LeftHand -13.994726 -0.000000 55.012017
LeftHandThumb1 -26.253704 0.000000 33.147579
RightShoulder -0.784314 -22.048913 -11.012847
RightArm 13.524488 -34.054862 47.825905
RightForeArm -159.428782 -0.000000 44.600589
RightHand 4.789765 -0.000000 -11.526334
RightHandThumb1 -24.326973 -0.000000 -32.862282
LeftUpLeg -32.911826 -1.001619 -4.357796
LeftLeg 18.662145 -0.000000 -0.000000
LeftFoot -2.073740 -10.341030 -25.970964
LeftToeBase 5.888668 -0.000000 -0.000000
RightUpLeg -26.919680 -20.182455 -3.215969
RightLeg 7.078844 -0.000000 -0.000000
RightFoot -11.456713 -13.064694 1.480782
RightToeBase 3.937146 -0.000000 -0.000000
3651
root -1.573812 37.892761 0.076435 40.407395 47.874425 23.472293
Spine 9.371446 5.314612 1.423978
Head -5.943268 6.797676 -14.990361
LeftShoulder 1.928845 -15.708605 4.082090
LeftArm 16.220249 -26.997448 -54.305642
LeftForeArm -3.169684 -0.000000 74.458019
LeftHand -13.906752 -0.000000 53.015001
LeftHandThumb1 -26.253704 0.000000 33.147579
RightShoulder -0.809378 -22.085987 -10.897757
RightArm 13.668218 -34.551719 47.901855
RightForeArm -158.953859 -0.000000 45.136464
RightHand 5.316241 -0.000000 -12.323935
RightHandThumb1 -24.326973 -0.000000 -32.862282
LeftUpLeg -32.638600 -1.446008 -4.254851
LeftLeg 18.225372 -0.000000 -0.000000
LeftFoot -3.030981 -10.264709 -26.096664
LeftToeBase 6.194931 -0.000000 -0.000000
RightUpLeg -26.654514 -19.839448 -2.735559
RightLeg 7.043472 -0.000000 -0.000000
RightFoot -11.429778 -12.478775 1.437313
RightToeBase 3.961744 -0.000000 -0.000000
3652
root -1.496020 37.859115 0.095470 39.118382 47.477583 22.161322
Spine 9.368703 5.421972 1.652873
Head -5.890335 6.863972 -14.638306
LeftShoulder 1.671310 -15.554721 4.108111
LeftArm 15.780946 -27.201552 -53.949752
LeftForeArm -3.056311 -0.000000 74.870573
LeftHand -13.978576 -0.000000 52.990181
LeftHandThumb1 -26.253704 0.000000 33.147579
RightShoulder -0.914730 -22.234317 -10.783776
RightArm 13.886006 -35.051277 47.917547
RightForeArm -158.274191 -0.000000 45.662209
RightHand 5.693040 -0.000000 -13.005714
RightHandThumb1 -24.326973 -0.000000 -32.862282
LeftUpLeg -32.340789 -1.903478 -4.068314
LeftLeg 17.712589 -0.000000 -0.000000
LeftFoot -3.956557 -10.067975 -25.544194
LeftToeBase 5.458907 -0.000000 -0.000000
RightUpLeg -26.406049 -19.504456 -2.234897
RightLeg 7.110854 -0.000000 -0.000000
RightFoot -11.452201 -11.931544 1.422694
RightToeBase 3.895845 -0.000000 -0.000000
3653
root -1.413035 37.825407 0.119282 37.880523 47.034696 20.947155
Spine 9.366086 5.518396 1.763291
Head -5.809447 6.950690 -14.174039
LeftShoulder 1.465979 -15.328234 4.165024
LeftArm 15.364076 -27.464722 -53.557857
LeftForeArm -3.015419 0.000000 75.331392
LeftHand -14.180732 -0.000000 53.395046
LeftHandThumb1 -26.253704 0.000000 33.147579
RightShoulder -1.025910 -22.362050 -10.598905
RightArm 13.991153 -35.521981 47.988371
RightForeArm -157.351180 -0.000000 46.178581
RightHand 6.163883 -0.000000 -13.928051
RightHandThumb1 -24.326973 -0.000000 -32.862282
LeftUpLeg -31.878802 -2.596280 -3.756884
LeftLeg 16.845114 -0.000000 -0.000000
LeftFoot -4.961028 -9.840095 -25.818975
LeftToeBase 6.206769 -0.000000 -0.000000
RightUpLeg -26.125575 -19.240396 -1.778139
RightLeg 7.165936 -0.000000 -0.000000
RightFoot -11.478288 -11.327575 1.348944
RightToeBase 3.892693 -0.000000 -0.000000
3654
root -1.327683 37.788196 0.150083 36.646429 46.609813 19.736262
Spine 9.330222 5.561849 1.903323
Head -5.705267 7.030807 -13.741482
LeftShoulder 1.221029 -15.058992 4.215576
LeftArm 14.971397 -27.708602 -53.153067
LeftForeArm -2.971709 0.000000 75.763574
LeftHand -14.225114 -0.000000 53.417364
LeftHandThumb1 -26.253704 0.000000 33.147579
RightShoulder -1.205808 -22.494364 -10.440270
RightArm 14.107167 -36.056132 48.087760
RightForeArm -156.368204 -0.000000 46.693920
RightHand 6.752085 -0.000000 -14.595099
RightHandThumb1 -24.326973 -0.000000 -32.862282
LeftUpLeg -31.438452 -3.086487 -3.494981
LeftLeg 16.038008 -0.000000 -0.000000
LeftFoot -5.945442 -9.645433 -25.425573
LeftToeBase 6.039124 -0.000000 -0.000000
RightUpLeg -25.807203 -18.884784 -1.358068
RightLeg 7.268696 -0.000000 -0.000000
RightFoot -11.655240 -10.794042 1.503326
RightToeBase 4.131266 -0.000000 -0.000000
3655
root -1.247660 37.754380 0.177157 35.441373 46.072049 18.498353
Spine 9.262004 5.668161 1.977427
Head -5.648671 7.104142 -13.270521
LeftShoulder 0.958733 -14.865073 4.322216
LeftArm 14.499061 -27.932371 -52.739704
LeftForeArm -2.982457 0.000000 76.219493
LeftHand -14.315779 0.000000 53.810031
LeftHandThumb1 -26.253704 0.000000 33.147579
RightShoulder -1.368127 -22.689941 -10.267133
RightArm 14.214717 -36.522867 48.185192
RightForeArm -155.251899 0.000000 47.213649
RightHand 7.275935 0.000000 -15.409951
RightHandThumb1 -24.326973 -0.000000 -32.862282
LeftUpLeg -31.033414 -3.487797 -3.218444
LeftLeg 15.221872 -0.000000 -0.000000
LeftFoot -6.930665 -9.354096 -25.142025
LeftToeBase 5.994433 -0.000000 -0.000000
RightUpLeg -25.579680 -18.346440 -0.986680
RightLeg 7.493494 -0.000000 -0.000000
RightFoot -11.715177 -10.334038 1.474475
RightToeBase 4.003994 -0.000000 -0.000000
